<svg width="100" height="100" viewBox="0 0 100 100" fill="none" xmlns="http://www.w3.org/2000/svg">
<path d="M85.3108 0H14.6893C6.57666 0 5.91278e-05 6.57661 5.91278e-05 14.6893V85.3107C5.91278e-05 93.4234 6.57666 100 14.6893 100H85.3108C93.4234 100 100 93.4234 100 85.3107V14.6893C100 6.57661 93.4234 0 85.3108 0Z" fill="url(#paint0_radial_107_405)"/>
<g opacity="0.5">
<mask id="mask0_107_405" style="mask-type:alpha" maskUnits="userSpaceOnUse" x="0" y="0" width="100" height="100">
<path d="M85.3107 0H14.6893C6.57661 0 0 6.57661 0 14.6893V85.3107C0 93.4234 6.57661 100 14.6893 100H85.3107C93.4234 100 100 93.4234 100 85.3107V14.6893C100 6.57661 93.4234 0 85.3107 0Z" fill="url(#paint1_radial_107_405)"/>
</mask>
<g mask="url(#mask0_107_405)">
<g style="mix-blend-mode:color-burn" opacity="0.7">
<path d="M74.9955 12.4508C49.4084 -6.59466 13.2693 -1.34892 -5.72355 24.1675C-24.7164 49.6838 -19.3707 85.8083 6.21634 104.854C31.8034 123.899 67.9426 118.654 86.9354 93.1371C105.928 67.6207 100.583 31.4962 74.9955 12.4508Z" fill="url(#paint2_linear_107_405)"/>
<path d="M83.1392 93.528C89.9644 78.4954 89.7641 60.5517 80.9511 44.3876C65.2874 15.6693 28.3718 3.41151 -1.49606 17.019C-5.33613 18.7692 -8.86735 20.8614 -12.0829 23.2316C-6.76456 11.5774 2.77746 1.67618 15.834 -4.27548C22.9336 -7.50896 30.4254 -9.28452 37.9371 -9.71688C62.0427 -11.1324 86.3431 1.19006 98.2812 23.0931C111.93 48.1191 104.929 77.4017 83.1409 93.5224L83.1392 93.528Z" fill="url(#paint3_linear_107_405)"/>
<path d="M48.5083 109.181C64.7489 106.803 79.641 96.993 88.412 80.9303C104.001 52.3936 94.3971 14.9452 66.9655 -2.71787C63.4437 -4.98514 59.7937 -6.8109 56.0761 -8.22563C68.6787 -10.0459 82.0857 -7.39218 94.0768 0.322652C100.597 4.51665 106.108 9.82462 110.512 15.8749C124.654 35.2663 127.419 62.207 115.527 83.9629C101.939 108.83 73.6941 118.723 48.5065 109.174L48.5083 109.181Z" fill="url(#paint4_linear_107_405)"/>
</g>
</g>
</g>
<mask id="mask1_107_405" style="mask-type:alpha" maskUnits="userSpaceOnUse" x="0" y="0" width="100" height="100">
<path d="M85.3107 0H14.6893C6.57661 0 0 6.57661 0 14.6893V85.3107C0 93.4234 6.57661 100 14.6893 100H85.3107C93.4234 100 100 93.4234 100 85.3107V14.6893C100 6.57661 93.4234 0 85.3107 0Z" fill="url(#paint5_radial_107_405)"/>
</mask>
<g mask="url(#mask1_107_405)">
<path d="M26.6872 10.456L-13.1676 43.3288C-14.8467 44.714 -15.8192 46.7767 -15.8192 48.9531V100.392C-15.8192 102.672 -13.9712 104.52 -11.6915 104.52H76.0983C78.3779 104.52 80.226 102.672 80.226 100.392V48.9531C80.226 46.7765 79.2535 44.7138 77.5744 43.3288L37.7196 10.456C34.5166 7.81416 29.8902 7.81416 26.6872 10.456Z" fill="url(#paint6_linear_107_405)"/>
<path d="M-13.1676 43.3287C-14.8467 44.7138 -15.8192 46.7765 -15.8192 48.953V100.392C-15.8192 102.672 -13.9712 104.52 -11.6915 104.52H76.0983C78.3779 104.52 80.226 102.672 80.226 100.392V48.953C80.226 46.7763 79.2535 44.7136 77.5744 43.3287L61.3981 29.9863H3.00866L-13.1676 43.3287Z" fill="url(#paint7_linear_107_405)"/>
<path d="M64.1195 26.5537C68.3345 26.5537 71.7514 28.7966 71.7514 31.5632V86.7624C71.7514 89.7948 69.8795 92.5389 66.8523 94.5245C63.8271 96.5115 59.6442 97.7401 55.0265 97.7401H-7.34464V31.5632C-7.34464 28.7966 -3.92775 26.5537 0.287294 26.5537H64.1195Z" fill="url(#paint8_linear_107_405)"/>
<path d="M26.7914 42.0664V47.4681L20.9039 53.3566V47.2875L26.857 41.3345L26.7914 42.0664Z" fill="#B61C28"/>
<path d="M26.7914 53.117V58.5186L20.9039 64.4071V58.3381L26.857 52.385L26.7914 53.117Z" fill="#0D2E6F"/>
<path d="M26.066 36.1582L20.9039 41.3213V36.1582H26.066Z" fill="#0D2E6F"/>
<path d="M34.8781 36.801V39.2909H34.9991C35.3736 38.381 35.9033 37.6309 36.586 37.0418C37.2687 36.4527 38.1991 36.1582 39.3785 36.1582C40.5578 36.1582 41.5008 36.439 42.3707 37.0019C43.2407 37.5647 43.9633 38.3342 44.5399 39.3126C45.1152 40.291 45.5582 41.4417 45.8653 42.7672C46.1736 44.0938 46.3277 45.5334 46.3277 47.0861C46.3277 48.6387 46.1724 50.1537 45.8653 51.5453C45.5571 52.9381 45.1152 54.1437 44.5399 55.1609C43.9633 56.1793 43.2407 56.9819 42.3707 57.5709C41.5008 58.1589 40.503 58.4546 39.3785 58.4546C38.1729 58.4546 37.2219 58.16 36.5266 57.5709C35.8302 56.9819 35.3473 56.3117 35.0802 55.5628H35.0002V64.4071H28.8137V36.1582H34.8792L34.8781 36.801ZM34.7571 47.2858C34.7571 48.0622 34.8096 48.7985 34.918 49.4949C35.0242 50.1913 35.192 50.801 35.4192 51.3227C35.6464 51.8444 35.9284 52.2543 36.2629 52.5477C36.5974 52.8422 36.9924 52.9895 37.4479 52.9895C37.9297 52.9895 38.3384 52.8422 38.6729 52.5477C39.0074 52.2532 39.2894 51.8444 39.5166 51.3227C39.7438 50.801 39.9048 50.1913 39.9995 49.4949C40.0931 48.7985 40.1399 48.0622 40.1399 47.2858C40.1399 46.5095 40.0931 45.7389 39.9995 45.0562C39.9048 44.3735 39.7438 43.7707 39.5166 43.249C39.2894 42.7272 39.0074 42.3185 38.6729 42.024C38.3384 41.7306 37.9297 41.5822 37.4479 41.5822C36.9924 41.5822 36.5974 41.7294 36.2629 42.024C35.9284 42.3185 35.6464 42.7272 35.4192 43.249C35.192 43.7707 35.0242 44.3735 34.918 45.0562C34.8107 45.7389 34.7571 46.4821 34.7571 47.2858Z" fill="#B61C28"/>
<path d="M-7.15649 63.8394V97.7428H54.9179C59.5136 97.7428 63.6765 96.6615 66.6872 94.9127C69.7002 93.1653 71.5629 90.7503 71.5629 88.0815V63.8394H-7.15649Z" fill="url(#paint9_linear_107_405)"/>
<path d="M77.5744 49.6103L37.7196 82.4832C34.5166 85.125 29.89 85.125 26.687 82.4832L-13.1676 49.6103C-14.1855 48.7708 -14.9414 47.6815 -15.3808 46.4695C-15.6663 47.2571 -15.8192 48.0957 -15.8192 48.9529V100.392C-15.8192 102.672 -13.9712 104.52 -11.6915 104.52H76.0983C78.3779 104.52 80.226 102.672 80.226 100.392V48.9529C80.226 48.0957 80.073 47.2569 79.7875 46.4695C79.3482 47.6815 78.5921 48.7708 77.5744 49.6103Z" fill="url(#paint10_linear_107_405)"/>
<path d="M76.0983 104.52C78.3779 104.52 80.226 102.672 80.226 100.392V48.9529C80.226 48.0957 80.073 47.2569 79.7875 46.4695C79.3482 47.6815 78.5921 48.7708 77.5744 49.6103L37.7196 82.4832C36.1181 83.8041 34.1606 84.4646 32.2034 84.4646V104.52H76.0983Z" fill="url(#paint11_linear_107_405)"/>
<path d="M-11.6915 104.52C-13.9712 104.52 -15.8192 102.672 -15.8192 100.392V48.9529C-15.8192 48.0957 -15.6663 47.2569 -15.3808 46.4695C-14.9414 47.6815 -14.1855 48.7708 -13.1676 49.6103L26.687 82.4832C28.2885 83.8041 30.2459 84.4646 32.2032 84.4646V104.52H-11.6915Z" fill="url(#paint12_linear_107_405)"/>
<path d="M79.194 103.122C78.4369 103.979 77.3315 104.52 76.098 104.52H-11.6911C-12.9246 104.52 -14.0301 103.979 -14.7871 103.122C-14.3634 102.412 -13.8191 101.772 -13.1675 101.233L19.2466 73.3065C26.7213 66.8664 37.7855 66.8728 45.2528 73.3214L77.5744 101.233C78.226 101.772 78.7703 102.412 79.194 103.122Z" fill="url(#paint13_linear_107_405)"/>
<path d="M77.5744 101.234L64.5885 90.0193H-0.151352L-13.1675 101.234C-13.8191 101.772 -14.3634 102.412 -14.7871 103.122C-14.0301 103.979 -12.9246 104.52 -11.6911 104.52H76.098C77.3315 104.52 78.4369 103.979 79.194 103.122C78.7703 102.412 78.226 101.772 77.5744 101.234Z" fill="url(#paint14_linear_107_405)"/>
</g>
<defs>
<radialGradient id="paint0_radial_107_405" cx="0" cy="0" r="1" gradientUnits="userSpaceOnUse" gradientTransform="translate(76.8307 -7.9096) rotate(126.501) scale(140.568)">
<stop stop-color="#EEE3F4"/>
<stop offset="1" stop-color="#E3E1EA"/>
</radialGradient>
<radialGradient id="paint1_radial_107_405" cx="0" cy="0" r="1" gradientUnits="userSpaceOnUse" gradientTransform="translate(76.8306 -7.9096) rotate(126.501) scale(140.568)">
<stop stop-color="#DBB3F0"/>
<stop offset="1" stop-color="#E3E1EA"/>
</radialGradient>
<linearGradient id="paint2_linear_107_405" x1="72.5537" y1="17.7905" x2="1.65401" y2="108.577" gradientUnits="userSpaceOnUse">
<stop stop-color="#D1E1FF"/>
<stop offset="1" stop-color="#0D2E6F"/>
</linearGradient>
<linearGradient id="paint3_linear_107_405" x1="82.3521" y1="51.7335" x2="65.9131" y2="120.31" gradientUnits="userSpaceOnUse">
<stop stop-color="#1F64EC"/>
<stop offset="1" stop-color="white"/>
</linearGradient>
<linearGradient id="paint4_linear_107_405" x1="103.156" y1="6.10526" x2="40.2734" y2="103.823" gradientUnits="userSpaceOnUse">
<stop stop-color="#5B92FF"/>
<stop offset="1" stop-color="white"/>
</linearGradient>
<radialGradient id="paint5_radial_107_405" cx="0" cy="0" r="1" gradientUnits="userSpaceOnUse" gradientTransform="translate(76.8306 -7.9096) rotate(126.501) scale(140.568)">
<stop stop-color="#DBB3F0"/>
<stop offset="1" stop-color="#E3E1EA"/>
</radialGradient>
<linearGradient id="paint6_linear_107_405" x1="24.7516" y1="-0.984396" x2="49.5924" y2="177.969" gradientUnits="userSpaceOnUse">
<stop stop-color="#1B56CC"/>
<stop offset="1" stop-color="#98BBFF"/>
</linearGradient>
<linearGradient id="paint7_linear_107_405" x1="32.2034" y1="58.0561" x2="32.2034" y2="119.07" gradientUnits="userSpaceOnUse">
<stop stop-color="#1612CC" stop-opacity="0"/>
<stop offset="0.5302" stop-color="#09168C" stop-opacity="0.53"/>
<stop offset="1" stop-color="#150097"/>
</linearGradient>
<linearGradient id="paint8_linear_107_405" x1="53.6723" y1="127.684" x2="42.9148" y2="53.7883" gradientUnits="userSpaceOnUse">
<stop stop-color="#4C9DE9"/>
<stop offset="1" stop-color="white"/>
</linearGradient>
<linearGradient id="paint9_linear_107_405" x1="32.2032" y1="70.5803" x2="32.2032" y2="86.8454" gradientUnits="userSpaceOnUse">
<stop stop-color="#FE8A8A" stop-opacity="0"/>
<stop offset="0.0662" stop-color="#F38585" stop-opacity="0.066"/>
<stop offset="0.3695" stop-color="#C36F6F" stop-opacity="0.37"/>
<stop offset="0.6372" stop-color="#A06060" stop-opacity="0.637"/>
<stop offset="0.8565" stop-color="#8B5656" stop-opacity="0.857"/>
<stop offset="1" stop-color="#835356"/>
</linearGradient>
<linearGradient id="paint10_linear_107_405" x1="26.0397" y1="55.8109" x2="40.4456" y2="99.3107" gradientUnits="userSpaceOnUse">
<stop stop-color="#F5F173"/>
<stop offset="1" stop-color="#FBB03B"/>
</linearGradient>
<linearGradient id="paint11_linear_107_405" x1="76.7485" y1="51.5255" x2="40.1606" y2="97.9729" gradientUnits="userSpaceOnUse">
<stop stop-color="#1042A6"/>
<stop offset="1" stop-color="#3E7EFF"/>
</linearGradient>
<linearGradient id="paint12_linear_107_405" x1="-19.5133" y1="46.3999" x2="13.1099" y2="82.8973" gradientUnits="userSpaceOnUse">
<stop stop-color="#1042A6"/>
<stop offset="1" stop-color="#3E7EFF"/>
</linearGradient>
<linearGradient id="paint13_linear_107_405" x1="39.099" y1="104.52" x2="40.0841" y2="71.5196" gradientUnits="userSpaceOnUse">
<stop stop-color="#0D2E6F"/>
<stop offset="1" stop-color="#1B56CC"/>
</linearGradient>
<linearGradient id="paint14_linear_107_405" x1="32.2034" y1="95.4803" x2="32.2034" y2="107.351" gradientUnits="userSpaceOnUse">
<stop stop-color="#1612CC" stop-opacity="0"/>
<stop offset="0.5302" stop-color="#09168C" stop-opacity="0.53"/>
<stop offset="1" stop-color="#150097"/>
</linearGradient>
</defs>
</svg>
